<svg width="1000" height="1000" viewBox="0 -80 816 80" version="1.2" xmlns="http://www.w3.org/2000/svg" xmlns:xlink="http://www.w3.org/1999/xlink" baseProfile="Full">
	<g transform="rotate(180, 0, 0)">
		<g id="Letter_a" fill="none" stroke="black" transform="translate(-12,0)">
			<polyline points="-10,25 0,35 10,25"/>
			<line x1="0" y1="0" x2="0" y2="20"/>
			<line x1="0" y1="20" x2="0" y2="35"/>
		</g>
		<g id="Letter_b" fill="none" stroke="black" transform="translate(-36,0)">
			<polyline points="-10,35 0,25 10,35"/>
			<line x1="0" y1="0" x2="0" y2="20"/>
			<line x1="-7" y1="20" x2="7" y2="20"/>
			<line x1="0" y1="20" x2="0" y2="25"/>
		</g>
		<g id="Letter_c" fill="none" stroke="black" transform="translate(-60,0)">
			<ellipse cx="0" cy="30" rx="8" ry="5"/>
			<line x1="0" y1="0" x2="0" y2="20"/>
			<line x1="-7" y1="20" x2="7" y2="20"/>
			<line x1="0" y1="20" x2="0" y2="25"/>
		</g>
		<g id="Letter_d" fill="none" stroke="black" transform="translate(-84,0)">
			<polyline points="-10,25 0,35 10,25"/>
			<line x1="0" y1="0" x2="0" y2="20"/>
			<line x1="-7" y1="20" x2="7" y2="20"/>
			<line x1="0" y1="20" x2="0" y2="35"/>
		</g>
		<g id="Letter_e" fill="none" stroke="black" transform="translate(-108,0)">
			<line x1="-10" y1="35" x2="10" y2="35"/>
			<line x1="0" y1="0" x2="0" y2="20"/>
			<line x1="0" y1="20" x2="0" y2="35"/>
		</g>
		<g id="Letter_f" fill="none" stroke="black" transform="translate(-132,0)">
			<line x1="0" y1="20" x2="0" y2="35"/>
			<line x1="-10" y1="35" x2="10" y2="35"/>
			<line x1="-10" y1="30" x2="10" y2="30"/>
			<line x1="0" y1="0" x2="0" y2="20"/>
			<line x1="0" y1="20" x2="0" y2="35"/>
		</g>
		<g id="Letter_g" fill="none" stroke="black" transform="translate(-156,0)">
			<ellipse cx="0" cy="30" rx="8" ry="5"/>
			<line x1="0" y1="0" x2="0" y2="20"/>
			<line x1="-7" y1="20" x2="7" y2="20"/>
			<line x1="-7" y1="15" x2="7" y2="15"/>
			<line x1="0" y1="20" x2="0" y2="25"/>
		</g>
		<g id="Letter_h" fill="none" stroke="black" transform="translate(-180,0)">
			<polyline points="-10,25 0,35 10,25"/>
			<line x1="-7" y1="20" x2="7" y2="20"/>
			<line x1="-7" y1="15" x2="7" y2="15"/>
			<line x1="0" y1="0" x2="0" y2="20"/>
			<line x1="0" y1="20" x2="0" y2="35"/>
		</g>
		<g id="Letter_i" fill="none" stroke="black" transform="translate(-204,0)">
			<line x1="0" y1="20" x2="0" y2="35"/>
			<line x1="0" y1="0" x2="0" y2="20"/>
			<line x1="0" y1="20" x2="0" y2="35"/>
			<line x1="0" y1="20" x2="0" y2="35"/>
		</g>
		<g id="Letter_j" fill="none" stroke="black" transform="translate(-228,0)">
			<polyline points="0,25 0,35 -10,25"/>
			<line x1="0" y1="0" x2="0" y2="20"/>
			<line x1="0" y1="20" x2="0" y2="35"/>
		</g>
		<g id="Letter_k" fill="none" stroke="black" transform="translate(-252,0)">
			<polyline points="0,25 0,35 -10,25"/>
			<line x1="0" y1="30" x2="-10" y2="20"/>
			<line x1="0" y1="0" x2="0" y2="20"/>
			<line x1="0" y1="20" x2="0" y2="25"/>
		</g>
		<g id="Letter_l" fill="none" stroke="black" transform="translate(-276,0)">
			<polyline points="-10,25 0,35 10,25 -10,25 0,35"/>
			<line x1="0" y1="0" x2="0" y2="20"/>
			<line x1="0" y1="20" x2="0" y2="25"/>
		</g>
		<g id="Letter_m" fill="none" stroke="black" transform="translate(-300,0)">
			<polyline points="-10,25 0,35 10,25 -10,25 0,35"/>
			<line x1="0" y1="0" x2="0" y2="20"/>
			<line x1="-7" y1="20" x2="7" y2="20"/>
			<line x1="0" y1="20" x2="0" y2="25"/>
		</g>
		<g id="Letter_n" fill="none" stroke="black" transform="translate(-324,0)">
			<polyline points="-10,25 0,35 10,25 -10,25 0,35"/>
			<line x1="0" y1="0" x2="0" y2="20"/>
			<line x1="-7" y1="20" x2="7" y2="20"/>
			<line x1="-7" y1="15" x2="7" y2="15"/>
			<line x1="0" y1="20" x2="0" y2="25"/>
		</g>
		<g id="Letter_o" fill="none" stroke="black" transform="translate(-348,0)">
			<ellipse cx="0" cy="30" rx="8" ry="5"/>
			<line x1="0" y1="0" x2="0" y2="20"/>
			<line x1="0" y1="20" x2="0" y2="25"/>
		</g>
		<g id="Letter_p" fill="none" stroke="black" transform="translate(-372,0)">
			<polyline points="-10,25 0,35 10,25"/>
			<line x1="0" y1="30" x2="-10" y2="20"/>
			<line x1="0" y1="20" x2="0" y2="35"/>
			<line x1="0" y1="0" x2="0" y2="20"/>
		</g>
		<g id="Letter_q" fill="none" stroke="black" transform="translate(-396,0)">
			<polyline points="-10,35 0,25 10,35 -10,35 0,25"/>
			<line x1="0" y1="20" x2="0" y2="25"/>
			<line x1="0" y1="0" x2="0" y2="20"/>
		</g>
		<g id="Letter_r" fill="none" stroke="black" transform="translate(-420,0)">
			<polyline points="-10,35 0,25 10,35"/>
			<line x1="0" y1="20" x2="0" y2="25"/>
			<line x1="0" y1="0" x2="0" y2="20"/>
			<line x1="0" y1="20" x2="-10" y2="10"/>
			<line x1="0" y1="15" x2="-10" y2="5"/>
		</g>
		<g id="Letter_s" fill="none" stroke="black" transform="translate(-444,0)">
			<ellipse cx="0" cy="30" rx="8" ry="5"/>
			<line x1="0" y1="20" x2="0" y2="25"/>
			<line x1="0" y1="20" x2="-10" y2="10"/>
			<line x1="0" y1="0" x2="0" y2="20"/>
		</g>
		<g id="Letter_t" fill="none" stroke="black" transform="translate(-468,0)">
			<ellipse cx="0" cy="30" rx="8" ry="5"/>
			<line x1="0" y1="20" x2="0" y2="25"/>
			<line x1="0" y1="20" x2="-10" y2="10"/>
			<line x1="0" y1="15" x2="-10" y2="5"/>
			<line x1="0" y1="0" x2="0" y2="20"/>
		</g>
		<g id="Letter_u" fill="none" stroke="black" transform="translate(-492,0)">
			<ellipse cx="0" cy="35" rx="8" ry="10" stroke-dasharray="28,36167" transform="rotate(180,0,35)"/>
			<line x1="0" y1="20" x2="0" y2="25"/>
			<line x1="0" y1="0" x2="0" y2="20"/>
		</g>
		<g id="Letter_v" fill="none" stroke="black" transform="translate(-516,0)">
			<ellipse cx="0" cy="35" rx="8" ry="10" stroke-dasharray="28,36167" transform="rotate(180,0,35)"/>
			<line x1="0" y1="20" x2="0" y2="25"/>
			<line x1="0" y1="0" x2="0" y2="20"/>
			<line x1="-7" y1="20" x2="7" y2="20"/>
		</g>
		<g id="Letter_w" fill="none" stroke="black" transform="translate(-540,0)">
			<ellipse cx="0" cy="35" rx="8" ry="10" stroke-dasharray="28,36167" transform="rotate(180,0,35)"/>
			<line x1="0" y1="20" x2="0" y2="25"/>
			<line x1="0" y1="0" x2="0" y2="20"/>
			<line x1="-7" y1="20" x2="7" y2="20"/>
			<line x1="-7" y1="15" x2="7" y2="15"/>
		</g>
		<g id="Letter_x" fill="none" stroke="black" transform="translate(-564,0)">
			<polyline points="-8,25 8,25 8,35 -8,35"/>
			<line x1="0" y1="20" x2="0" y2="25"/>
			<line x1="0" y1="0" x2="0" y2="20"/>
		</g>
		<g id="Letter_y" fill="none" stroke="black" transform="translate(-588,0)">
			<polyline points="-10,35 0,25 10,35"/>
			<line x1="0" y1="20" x2="0" y2="25"/>
			<line x1="0" y1="0" x2="0" y2="20"/>
		</g>
		<g id="Letter_z" fill="none" stroke="black" transform="translate(-612,0)">
			<polyline points="-8,25 8,25 8,35 -8,35"/>
			<line x1="0" y1="20" x2="0" y2="25"/>
			<line x1="0" y1="0" x2="0" y2="20"/>
			<line x1="-7" y1="20" x2="7" y2="20"/>
		</g>
		<g id="Letter_ea" fill="none" stroke="black" transform="translate(-636,0)">
			<line x1="-10" y1="35" x2="10" y2="35"/>
			<polyline points="-10,25 0,35 10,25"/>
			<line x1="0" y1="20" x2="0" y2="35"/>
			<line x1="0" y1="0" x2="0" y2="20"/>
		</g>
		<g id="Letter_oa" fill="none" stroke="black" transform="translate(-660,0)">
			<ellipse cx="0" cy="30" rx="8" ry="5"/>
			<line x1="0" y1="20" x2="0" y2="25"/>
			<line x1="0" y1="20" x2="-10" y2="10"/>
			<line x1="0" y1="20" x2="10" y2="10"/>
			<line x1="0" y1="0" x2="0" y2="20"/>
		</g>
		<g id="Letter_oi" fill="none" stroke="black" transform="translate(-684,0)">
			<polyline points="-10,35 0,25 10,35"/>
			<ellipse cx="0" cy="20" rx="8" ry="5"/>
			<line x1="0" y1="0" x2="0" y2="15"/>
		</g>
		<g id="Letter_ou" fill="none" stroke="black" transform="translate(-708,0)">
			<ellipse cx="0" cy="25" rx="8" ry="10" stroke-dasharray="28,36167" transform="rotate(180,0,25)"/>
			<ellipse cx="0" cy="30" rx="8" ry="5"/>
			<line x1="0" y1="0" x2="0" y2="15"/>
		</g>
		<g id="Letter_ch" fill="none" stroke="black" transform="translate(-732,0)">
			<polyline points="-10,25 0,35 10,25"/>
			<ellipse cx="0" cy="20" rx="8" ry="5"/>
			<line x1="0" y1="0" x2="0" y2="15"/>
			<line x1="-7" y1="10" x2="7" y2="10"/>
		</g>
		<g id="Letter_sh" fill="none" stroke="black" transform="translate(-756,0)">
			<polyline points="-10,25 0,35 10,25"/>
			<ellipse cx="0" cy="20" rx="8" ry="5"/>
			<line x1="0" y1="15" x2="-10" y2="5"/>
			<line x1="0" y1="0" x2="0" y2="15"/>
		</g>
		<g id="Letter_th" fill="none" stroke="black" transform="translate(-780,0)">
			<polyline points="-10,25 0,35 10,25"/>
			<ellipse cx="0" cy="20" rx="8" ry="5"/>
			<line x1="0" y1="10" x2="-10" y2="0"/>
			<line x1="0" y1="15" x2="-10" y2="5"/>
			<line x1="0" y1="0" x2="0" y2="15"/>
		</g>
		<g id="Letter_zh" fill="none" stroke="black" transform="translate(-804,0)">
			<polyline points="-8,25 8,25 8,35 -8,35"/>
			<line x1="0" y1="20" x2="0" y2="25"/>
			<line x1="-7" y1="20" x2="7" y2="20"/>
			<line x1="-7" y1="15" x2="7" y2="15"/>
			<line x1="0" y1="0" x2="0" y2="20"/>
		</g>
	</g>
</svg>